P3
# FILE: tests/data/images/PNM/areas5.pbm
# THRESHOLD: 1
10 6
1
0 0 0
0 0 0
0 0 0
0 0 0
0 0 0
0 0 0
0 0 0
0 0 0
0 0 0
0 0 0

0 0 0
1 0 0
0 0 0
0 0 0
0 0 1
0 0 1
0 0 0
0 0 0
0 0 0
0 0 0

0 0 0
1 0 0
0 0 0
0 0 0
0 0 1
0 0 1
0 0 0
0 1 0
0 1 0
0 0 0

0 0 0
1 0 0
0 0 0
1 0 0
0 0 0
0 0 1
0 0 0
0 1 0
0 0 0
0 0 0

0 0 0
1 0 0
1 0 0
1 0 0
0 0 0
0 0 0
0 0 0
0 0 0
0 0 0
0 0 0

0 0 0
0 0 0
0 0 0
0 0 0
0 0 0
0 0 0
0 0 0
0 0 0
0 0 0
0 0 0

