P2
3 2
10
10 10  1
 1  0 10
